<?xml version="1.0" encoding="UTF-8" standalone="no"?>
<!DOCTYPE svg PUBLIC "-//W3C//DTD SVG 1.1//EN"
 "http://www.w3.org/Graphics/SVG/1.1/DTD/svg11.dtd">
<!-- Generated by graphviz version 2.40.1 (20161225.0304)
 -->
<!-- Title: protocolchooser Pages: 1 -->
<svg width="2294pt" height="388pt"
 viewBox="0.00 0.00 2294.20 388.30" xmlns="http://www.w3.org/2000/svg" xmlns:xlink="http://www.w3.org/1999/xlink">
<g id="graph0" class="graph" transform="scale(1 1) rotate(0) translate(4 384.3)">
<title>protocolchooser</title>
<polygon fill="#ffffff" stroke="transparent" points="-4,4 -4,-384.3 2290.2,-384.3 2290.2,4 -4,4"/>
<!-- ENTRY -->
<g id="node1" class="node">
<title>ENTRY</title>
<ellipse fill="#000000" stroke="#000000" cx="1.8" cy="-321.5" rx="1.8" ry="1.8"/>
</g>
<!-- 1 -->
<g id="node17" class="node">
<title>1</title>
<ellipse fill="none" stroke="#000000" cx="91.1" cy="-302.5" rx="23.5" ry="23.5"/>
<text text-anchor="middle" x="91.1" y="-298.8" font-family="Times,serif" font-size="14.00" fill="#000000">1</text>
</g>
<!-- ENTRY&#45;&gt;1 -->
<g id="edge19" class="edge">
<title>ENTRY&#45;&gt;1</title>
<path fill="none" stroke="#000000" d="M3.6652,-321.1032C10.714,-319.6034 36.4308,-314.1317 58.1636,-309.5077"/>
<polygon fill="#000000" stroke="#000000" points="59.0467,-312.8983 68.0994,-307.3937 57.5899,-306.0515 59.0467,-312.8983"/>
<text text-anchor="middle" x="35.6" y="-321.3" font-family="Times,serif" font-size="14.00" fill="#000000">IN</text>
</g>
<!-- en_1 -->
<g id="node2" class="node">
<title>en_1</title>
<ellipse fill="#000000" stroke="#000000" cx="1.8" cy="-283.5" rx="1.8" ry="1.8"/>
</g>
<!-- en_1&#45;&gt;1 -->
<g id="edge20" class="edge">
<title>en_1&#45;&gt;1</title>
<path fill="none" stroke="#000000" d="M3.6301,-283.8104C9.9973,-284.8974 31.7656,-288.6749 49.6,-292.5 52.2924,-293.0775 55.0776,-293.698 57.8717,-294.3369"/>
<polygon fill="#000000" stroke="#000000" points="57.3458,-297.8085 67.8811,-296.687 58.9459,-290.9938 57.3458,-297.8085"/>
<text text-anchor="middle" x="35.6" y="-296.3" font-family="Times,serif" font-size="14.00" fill="#000000">main</text>
</g>
<!-- eof_1 -->
<g id="node3" class="node">
<title>eof_1</title>
<ellipse fill="#000000" stroke="#000000" cx="250.1" cy="-378.5" rx="1.8" ry="1.8"/>
</g>
<!-- eof_2 -->
<g id="node4" class="node">
<title>eof_2</title>
<ellipse fill="#000000" stroke="#000000" cx="447.1" cy="-286.5" rx="1.8" ry="1.8"/>
</g>
<!-- eof_3 -->
<g id="node5" class="node">
<title>eof_3</title>
<ellipse fill="#000000" stroke="#000000" cx="606.1" cy="-329.5" rx="1.8" ry="1.8"/>
</g>
<!-- eof_4 -->
<g id="node6" class="node">
<title>eof_4</title>
<ellipse fill="#000000" stroke="#000000" cx="765.1" cy="-286.5" rx="1.8" ry="1.8"/>
</g>
<!-- eof_5 -->
<g id="node7" class="node">
<title>eof_5</title>
<ellipse fill="#000000" stroke="#000000" cx="924.1" cy="-286.5" rx="1.8" ry="1.8"/>
</g>
<!-- eof_6 -->
<g id="node8" class="node">
<title>eof_6</title>
<ellipse fill="#000000" stroke="#000000" cx="1172.6" cy="-258.5" rx="1.8" ry="1.8"/>
</g>
<!-- eof_7 -->
<g id="node9" class="node">
<title>eof_7</title>
<ellipse fill="#000000" stroke="#000000" cx="1421.1" cy="-301.5" rx="1.8" ry="1.8"/>
</g>
<!-- eof_8 -->
<g id="node10" class="node">
<title>eof_8</title>
<ellipse fill="#000000" stroke="#000000" cx="1584.1" cy="-270.5" rx="1.8" ry="1.8"/>
</g>
<!-- eof_9 -->
<g id="node11" class="node">
<title>eof_9</title>
<ellipse fill="#000000" stroke="#000000" cx="1747.1" cy="-187.5" rx="1.8" ry="1.8"/>
</g>
<!-- eof_10 -->
<g id="node12" class="node">
<title>eof_10</title>
<ellipse fill="#000000" stroke="#000000" cx="1943.1" cy="-118.5" rx="1.8" ry="1.8"/>
</g>
<!-- eof_11 -->
<g id="node13" class="node">
<title>eof_11</title>
<ellipse fill="#000000" stroke="#000000" cx="2143.1" cy="-15.5" rx="1.8" ry="1.8"/>
</g>
<!-- eof_13 -->
<g id="node14" class="node">
<title>eof_13</title>
<ellipse fill="#000000" stroke="#000000" cx="2284.4" cy="-83.5" rx="1.8" ry="1.8"/>
</g>
<!-- 12 -->
<g id="node15" class="node">
<title>12</title>
<ellipse fill="none" stroke="#000000" cx="1584.1" cy="-223.5" rx="23.5" ry="23.5"/>
<ellipse fill="none" stroke="#000000" cx="1584.1" cy="-223.5" rx="27.5" ry="27.5"/>
<text text-anchor="middle" x="1584.1" y="-219.8" font-family="Times,serif" font-size="14.00" fill="#000000">12</text>
</g>
<!-- 13 -->
<g id="node16" class="node">
<title>13</title>
<ellipse fill="none" stroke="#000000" cx="2143.1" cy="-83.5" rx="23.5" ry="23.5"/>
<ellipse fill="none" stroke="#000000" cx="2143.1" cy="-83.5" rx="27.5" ry="27.5"/>
<text text-anchor="middle" x="2143.1" y="-79.8" font-family="Times,serif" font-size="14.00" fill="#000000">13</text>
</g>
<!-- 13&#45;&gt;eof_13 -->
<g id="edge32" class="edge">
<title>13&#45;&gt;eof_13</title>
<path fill="none" stroke="#000000" d="M2170.6795,-83.5C2201.5402,-83.5 2250.1308,-83.5 2272.4574,-83.5"/>
<polygon fill="#000000" stroke="#000000" points="2272.5715,-87.0001 2282.5715,-83.5 2272.5715,-80.0001 2272.5715,-87.0001"/>
<text text-anchor="middle" x="2226.6" y="-87.3" font-family="Times,serif" font-size="14.00" fill="#000000">EOF / err_eof</text>
</g>
<!-- 1&#45;&gt;eof_1 -->
<g id="edge21" class="edge">
<title>1&#45;&gt;eof_1</title>
<path fill="none" stroke="#000000" d="M112.6602,-312.9202C139.3689,-325.8107 186.2823,-348.3942 226.6,-367.5 230.6708,-369.4291 235.147,-371.5295 239.0909,-373.3731"/>
<polygon fill="#000000" stroke="#000000" points="237.8446,-376.6537 248.3872,-377.705 240.8013,-370.3087 237.8446,-376.6537"/>
<text text-anchor="middle" x="170.6" y="-363.3" font-family="Times,serif" font-size="14.00" fill="#000000">EOF / err_eof</text>
</g>
<!-- 2 -->
<g id="node18" class="node">
<title>2</title>
<ellipse fill="none" stroke="#000000" cx="250.1" cy="-302.5" rx="23.5" ry="23.5"/>
<text text-anchor="middle" x="250.1" y="-298.8" font-family="Times,serif" font-size="14.00" fill="#000000">2</text>
</g>
<!-- 1&#45;&gt;2 -->
<g id="edge1" class="edge">
<title>1&#45;&gt;2</title>
<path fill="none" stroke="#000000" d="M114.9039,-302.5C141.7947,-302.5 185.7708,-302.5 216.2325,-302.5"/>
<polygon fill="#000000" stroke="#000000" points="216.3934,-306.0001 226.3934,-302.5 216.3934,-299.0001 216.3934,-306.0001"/>
<text text-anchor="middle" x="170.6" y="-306.3" font-family="Times,serif" font-size="14.00" fill="#000000">&#39;0&#39;..&#39;9&#39;</text>
</g>
<!-- 4 -->
<g id="node19" class="node">
<title>4</title>
<ellipse fill="none" stroke="#000000" cx="606.1" cy="-266.5" rx="23.5" ry="23.5"/>
<text text-anchor="middle" x="606.1" y="-262.8" font-family="Times,serif" font-size="14.00" fill="#000000">4</text>
</g>
<!-- 1&#45;&gt;4 -->
<g id="edge2" class="edge">
<title>1&#45;&gt;4</title>
<path fill="none" stroke="#000000" d="M113.8528,-295.5305C140.5637,-287.6836 186.3363,-275.277 226.6,-269.5 352.9406,-251.3728 505.3779,-258.9616 572.0746,-263.7273"/>
<polygon fill="#000000" stroke="#000000" points="572.1658,-267.2435 582.3971,-264.492 572.6831,-260.2627 572.1658,-267.2435"/>
<text text-anchor="middle" x="348.6" y="-266.3" font-family="Times,serif" font-size="14.00" fill="#000000">&#39;&lt;&#39;</text>
</g>
<!-- 2&#45;&gt;eof_2 -->
<g id="edge22" class="edge">
<title>2&#45;&gt;eof_2</title>
<path fill="none" stroke="#000000" d="M272.7385,-295.5061C278.8076,-293.9052 285.4052,-292.4085 291.6,-291.5 344.6087,-283.7257 408.8255,-284.997 435.0594,-285.9638"/>
<polygon fill="#000000" stroke="#000000" points="435.0966,-289.4685 445.2377,-286.4012 435.3972,-282.4749 435.0966,-289.4685"/>
<text text-anchor="middle" x="348.6" y="-295.3" font-family="Times,serif" font-size="14.00" fill="#000000">EOF / err_eof</text>
</g>
<!-- 2&#45;&gt;2 -->
<g id="edge4" class="edge">
<title>2&#45;&gt;2</title>
<path fill="none" stroke="#000000" d="M236.3891,-321.71C233.3422,-333.1927 237.9125,-344 250.1,-344 258.4789,-344 263.2575,-338.8919 264.4358,-331.968"/>
<polygon fill="#000000" stroke="#000000" points="267.9126,-331.4786 263.8109,-321.71 260.9255,-331.9043 267.9126,-331.4786"/>
<text text-anchor="middle" x="250.1" y="-347.8" font-family="Times,serif" font-size="14.00" fill="#000000">&#39;0&#39;..&#39;9&#39;</text>
</g>
<!-- 3 -->
<g id="node20" class="node">
<title>3</title>
<ellipse fill="none" stroke="#000000" cx="447.1" cy="-329.5" rx="23.5" ry="23.5"/>
<text text-anchor="middle" x="447.1" y="-325.8" font-family="Times,serif" font-size="14.00" fill="#000000">3</text>
</g>
<!-- 2&#45;&gt;3 -->
<g id="edge3" class="edge">
<title>2&#45;&gt;3</title>
<path fill="none" stroke="#000000" d="M273.4721,-305.7033C308.2763,-310.4734 373.8906,-319.4662 413.7345,-324.9271"/>
<polygon fill="#000000" stroke="#000000" points="413.3757,-328.4105 423.7583,-326.3009 414.3262,-321.4754 413.3757,-328.4105"/>
<text text-anchor="middle" x="348.6" y="-328.3" font-family="Times,serif" font-size="14.00" fill="#000000">SP / see_octet_count</text>
</g>
<!-- 4&#45;&gt;eof_4 -->
<g id="edge24" class="edge">
<title>4&#45;&gt;eof_4</title>
<path fill="none" stroke="#000000" d="M629.561,-269.4511C663.9876,-273.7815 726.9402,-281.7 753.1523,-284.9971"/>
<polygon fill="#000000" stroke="#000000" points="752.8061,-288.4811 763.1648,-286.2566 753.6798,-281.5358 752.8061,-288.4811"/>
<text text-anchor="middle" x="685.6" y="-285.3" font-family="Times,serif" font-size="14.00" fill="#000000">EOF / err_eof</text>
</g>
<!-- 5 -->
<g id="node21" class="node">
<title>5</title>
<ellipse fill="none" stroke="#000000" cx="765.1" cy="-243.5" rx="23.5" ry="23.5"/>
<text text-anchor="middle" x="765.1" y="-239.8" font-family="Times,serif" font-size="14.00" fill="#000000">5</text>
</g>
<!-- 4&#45;&gt;5 -->
<g id="edge6" class="edge">
<title>4&#45;&gt;5</title>
<path fill="none" stroke="#000000" d="M628.268,-258.5736C634.4551,-256.6316 641.229,-254.7533 647.6,-253.5 675.4722,-248.0171 707.6476,-245.54 731.2741,-244.4211"/>
<polygon fill="#000000" stroke="#000000" points="731.6358,-247.9092 741.4817,-243.9967 731.3449,-240.9152 731.6358,-247.9092"/>
<text text-anchor="middle" x="685.6" y="-257.3" font-family="Times,serif" font-size="14.00" fill="#000000">&#39;0&#39;..&#39;9&#39;</text>
</g>
<!-- 3&#45;&gt;eof_3 -->
<g id="edge23" class="edge">
<title>3&#45;&gt;eof_3</title>
<path fill="none" stroke="#000000" d="M470.9039,-329.5C505.2712,-329.5 567.5447,-329.5 593.8486,-329.5"/>
<polygon fill="#000000" stroke="#000000" points="594.1746,-333.0001 604.1745,-329.5 594.1745,-326.0001 594.1746,-333.0001"/>
<text text-anchor="middle" x="526.6" y="-333.3" font-family="Times,serif" font-size="14.00" fill="#000000">EOF / err_eof</text>
</g>
<!-- 3&#45;&gt;4 -->
<g id="edge5" class="edge">
<title>3&#45;&gt;4</title>
<path fill="none" stroke="#000000" d="M468.5115,-319.3458C474.9299,-316.3973 482.0143,-313.2366 488.6,-310.5 517.2892,-298.5786 550.4824,-286.2835 574.256,-277.7313"/>
<polygon fill="#000000" stroke="#000000" points="575.5907,-280.9711 583.8274,-274.3073 573.2328,-274.3802 575.5907,-280.9711"/>
<text text-anchor="middle" x="526.6" y="-314.3" font-family="Times,serif" font-size="14.00" fill="#000000">&#39;&lt;&#39;</text>
</g>
<!-- 5&#45;&gt;eof_5 -->
<g id="edge25" class="edge">
<title>5&#45;&gt;eof_5</title>
<path fill="none" stroke="#000000" d="M786.2666,-254.3155C792.6782,-257.2826 799.8202,-260.2877 806.6,-262.5 844.1223,-274.7439 890.505,-282.0148 912.0501,-284.9639"/>
<polygon fill="#000000" stroke="#000000" points="911.7523,-288.4545 922.1189,-286.2673 912.651,-281.5124 911.7523,-288.4545"/>
<text text-anchor="middle" x="844.6" y="-284.3" font-family="Times,serif" font-size="14.00" fill="#000000">EOF / err_eof</text>
</g>
<!-- 6 -->
<g id="node22" class="node">
<title>6</title>
<ellipse fill="none" stroke="#000000" cx="924.1" cy="-243.5" rx="23.5" ry="23.5"/>
<text text-anchor="middle" x="924.1" y="-239.8" font-family="Times,serif" font-size="14.00" fill="#000000">6</text>
</g>
<!-- 5&#45;&gt;6 -->
<g id="edge7" class="edge">
<title>5&#45;&gt;6</title>
<path fill="none" stroke="#000000" d="M788.9039,-243.5C815.7947,-243.5 859.7708,-243.5 890.2325,-243.5"/>
<polygon fill="#000000" stroke="#000000" points="890.3934,-247.0001 900.3934,-243.5 890.3934,-240.0001 890.3934,-247.0001"/>
<text text-anchor="middle" x="844.6" y="-247.3" font-family="Times,serif" font-size="14.00" fill="#000000">&#39;0&#39;..&#39;9&#39;</text>
</g>
<!-- 8 -->
<g id="node23" class="node">
<title>8</title>
<ellipse fill="none" stroke="#000000" cx="1421.1" cy="-223.5" rx="23.5" ry="23.5"/>
<text text-anchor="middle" x="1421.1" y="-219.8" font-family="Times,serif" font-size="14.00" fill="#000000">8</text>
</g>
<!-- 5&#45;&gt;8 -->
<g id="edge8" class="edge">
<title>5&#45;&gt;8</title>
<path fill="none" stroke="#000000" d="M787.8094,-236.2008C814.4795,-228.0443 860.2138,-215.347 900.6,-210.5 1083.3074,-188.572 1304.5814,-209.7401 1387.544,-219.3292"/>
<polygon fill="#000000" stroke="#000000" points="1387.3005,-222.8247 1397.6414,-220.5188 1388.1196,-215.8727 1387.3005,-222.8247"/>
<text text-anchor="middle" x="1028.6" y="-208.3" font-family="Times,serif" font-size="14.00" fill="#000000">&#39;&gt;&#39; / see_syslog_header</text>
</g>
<!-- 6&#45;&gt;eof_6 -->
<g id="edge26" class="edge">
<title>6&#45;&gt;eof_6</title>
<path fill="none" stroke="#000000" d="M947.9272,-244.9383C999.8597,-248.073 1121.7018,-255.4277 1160.5047,-257.7699"/>
<polygon fill="#000000" stroke="#000000" points="1160.5674,-261.28 1170.7601,-258.3889 1160.9892,-254.2927 1160.5674,-261.28"/>
<text text-anchor="middle" x="1028.6" y="-257.3" font-family="Times,serif" font-size="14.00" fill="#000000">EOF / err_eof</text>
</g>
<!-- 6&#45;&gt;8 -->
<g id="edge10" class="edge">
<title>6&#45;&gt;8</title>
<path fill="none" stroke="#000000" d="M947.8068,-241.8633C983.067,-239.4813 1051.4246,-235.0647 1109.6,-232.5 1210.3931,-228.0565 1329.6332,-225.311 1386.9613,-224.1476"/>
<polygon fill="#000000" stroke="#000000" points="1387.3243,-227.6411 1397.2525,-223.9423 1387.1847,-220.6425 1387.3243,-227.6411"/>
<text text-anchor="middle" x="1172.6" y="-236.3" font-family="Times,serif" font-size="14.00" fill="#000000">&#39;&gt;&#39; / see_syslog_header</text>
</g>
<!-- 7 -->
<g id="node24" class="node">
<title>7</title>
<ellipse fill="none" stroke="#000000" cx="1172.6" cy="-301.5" rx="23.5" ry="23.5"/>
<text text-anchor="middle" x="1172.6" y="-297.8" font-family="Times,serif" font-size="14.00" fill="#000000">7</text>
</g>
<!-- 6&#45;&gt;7 -->
<g id="edge9" class="edge">
<title>6&#45;&gt;7</title>
<path fill="none" stroke="#000000" d="M942.0269,-258.7962C948.973,-263.9498 957.2561,-269.2199 965.6,-272.5 1023.5421,-295.2777 1096.7928,-300.5502 1138.8091,-301.5503"/>
<polygon fill="#000000" stroke="#000000" points="1138.9831,-305.0537 1149.0408,-301.7231 1139.1013,-298.0547 1138.9831,-305.0537"/>
<text text-anchor="middle" x="1028.6" y="-303.3" font-family="Times,serif" font-size="14.00" fill="#000000">&#39;0&#39;..&#39;9&#39;</text>
</g>
<!-- 8&#45;&gt;eof_8 -->
<g id="edge28" class="edge">
<title>8&#45;&gt;eof_8</title>
<path fill="none" stroke="#000000" d="M1442.3022,-234.2088C1448.7147,-237.1728 1455.8484,-240.2031 1462.6,-242.5 1501.6331,-255.7793 1549.8415,-264.7983 1571.9647,-268.5455"/>
<polygon fill="#000000" stroke="#000000" points="1571.6208,-272.0356 1582.0533,-270.1884 1572.7459,-265.1266 1571.6208,-272.0356"/>
<text text-anchor="middle" x="1500.6" y="-266.3" font-family="Times,serif" font-size="14.00" fill="#000000">EOF / err_eof</text>
</g>
<!-- 8&#45;&gt;12 -->
<g id="edge13" class="edge">
<title>8&#45;&gt;12</title>
<path fill="none" stroke="#000000" d="M1444.8016,-223.5C1471.456,-223.5 1515.1035,-223.5 1546.4401,-223.5"/>
<polygon fill="#000000" stroke="#000000" points="1546.553,-227.0001 1556.553,-223.5 1546.553,-220.0001 1546.553,-227.0001"/>
<text text-anchor="middle" x="1500.6" y="-227.3" font-family="Times,serif" font-size="14.00" fill="#000000">DEF</text>
</g>
<!-- 9 -->
<g id="node25" class="node">
<title>9</title>
<ellipse fill="none" stroke="#000000" cx="1584.1" cy="-154.5" rx="23.5" ry="23.5"/>
<text text-anchor="middle" x="1584.1" y="-150.8" font-family="Times,serif" font-size="14.00" fill="#000000">9</text>
</g>
<!-- 8&#45;&gt;9 -->
<g id="edge12" class="edge">
<title>8&#45;&gt;9</title>
<path fill="none" stroke="#000000" d="M1442.5679,-213.4787C1448.988,-210.5339 1456.059,-207.3419 1462.6,-204.5 1492.9391,-191.3182 1527.8947,-177.0258 1552.5006,-167.1111"/>
<polygon fill="#000000" stroke="#000000" points="1554.0687,-170.2531 1562.0425,-163.2767 1551.4586,-163.7579 1554.0687,-170.2531"/>
<text text-anchor="middle" x="1500.6" y="-208.3" font-family="Times,serif" font-size="14.00" fill="#000000">&#39;1&#39;..&#39;9&#39;</text>
</g>
<!-- 7&#45;&gt;eof_7 -->
<g id="edge27" class="edge">
<title>7&#45;&gt;eof_7</title>
<path fill="none" stroke="#000000" d="M1196.4272,-301.5C1248.3597,-301.5 1370.2018,-301.5 1409.0047,-301.5"/>
<polygon fill="#000000" stroke="#000000" points="1409.2602,-305.0001 1419.2601,-301.5 1409.2601,-298.0001 1409.2602,-305.0001"/>
<text text-anchor="middle" x="1316.6" y="-305.3" font-family="Times,serif" font-size="14.00" fill="#000000">EOF / err_eof</text>
</g>
<!-- 7&#45;&gt;8 -->
<g id="edge11" class="edge">
<title>7&#45;&gt;8</title>
<path fill="none" stroke="#000000" d="M1195.3261,-294.6806C1233.4927,-283.1817 1312.8463,-259.0752 1379.6,-237.5 1382.7112,-236.4945 1385.948,-235.4317 1389.1806,-234.3594"/>
<polygon fill="#000000" stroke="#000000" points="1390.3635,-237.6544 1398.7354,-231.1611 1388.1415,-231.0164 1390.3635,-237.6544"/>
<text text-anchor="middle" x="1316.6" y="-280.3" font-family="Times,serif" font-size="14.00" fill="#000000">&#39;&gt;&#39; / see_syslog_header</text>
</g>
<!-- 9&#45;&gt;eof_9 -->
<g id="edge29" class="edge">
<title>9&#45;&gt;eof_9</title>
<path fill="none" stroke="#000000" d="M1607.1937,-160.3298C1614.3569,-162.0716 1622.2893,-163.933 1629.6,-165.5 1668.0692,-173.7456 1713.9964,-181.8431 1735.2414,-185.4903"/>
<polygon fill="#000000" stroke="#000000" points="1734.7094,-188.95 1745.1545,-187.1749 1735.8822,-182.049 1734.7094,-188.95"/>
<text text-anchor="middle" x="1667.6" y="-184.3" font-family="Times,serif" font-size="14.00" fill="#000000">EOF / err_eof</text>
</g>
<!-- 9&#45;&gt;13 -->
<g id="edge14" class="edge">
<title>9&#45;&gt;13</title>
<path fill="none" stroke="#000000" d="M1607.9908,-154.6685C1670.7909,-154.7574 1845.5307,-152.7175 1988.6,-129.5 2038.0824,-121.4699 2049.8415,-115.7351 2097.6,-100.5 2100.9139,-99.4428 2104.3413,-98.285 2107.7594,-97.0863"/>
<polygon fill="#000000" stroke="#000000" points="2109.0516,-100.3409 2117.2663,-93.6499 2106.672,-93.7578 2109.0516,-100.3409"/>
<text text-anchor="middle" x="1834.1" y="-154.3" font-family="Times,serif" font-size="14.00" fill="#000000">SP / see_version</text>
</g>
<!-- 10 -->
<g id="node26" class="node">
<title>10</title>
<ellipse fill="none" stroke="#000000" cx="1747.1" cy="-93.5" rx="23.5" ry="23.5"/>
<text text-anchor="middle" x="1747.1" y="-89.8" font-family="Times,serif" font-size="14.00" fill="#000000">10</text>
</g>
<!-- 9&#45;&gt;10 -->
<g id="edge15" class="edge">
<title>9&#45;&gt;10</title>
<path fill="none" stroke="#000000" d="M1603.3055,-140.4375C1611.1586,-135.1812 1620.5201,-129.5186 1629.6,-125.5 1656.8828,-113.4252 1689.791,-104.9389 1713.8324,-99.754"/>
<polygon fill="#000000" stroke="#000000" points="1714.7967,-103.1285 1723.876,-97.6682 1713.3732,-96.2748 1714.7967,-103.1285"/>
<text text-anchor="middle" x="1667.6" y="-129.3" font-family="Times,serif" font-size="14.00" fill="#000000">&#39;0&#39;..&#39;9&#39;</text>
</g>
<!-- 10&#45;&gt;eof_10 -->
<g id="edge30" class="edge">
<title>10&#45;&gt;eof_10</title>
<path fill="none" stroke="#000000" d="M1770.7422,-96.5156C1812.7924,-101.8791 1899.1517,-112.8943 1930.9763,-116.9536"/>
<polygon fill="#000000" stroke="#000000" points="1930.6259,-120.4372 1940.9884,-118.2307 1931.5116,-113.4934 1930.6259,-120.4372"/>
<text text-anchor="middle" x="1834.1" y="-114.3" font-family="Times,serif" font-size="14.00" fill="#000000">EOF / err_eof</text>
</g>
<!-- 10&#45;&gt;13 -->
<g id="edge16" class="edge">
<title>10&#45;&gt;13</title>
<path fill="none" stroke="#000000" d="M1770.6857,-92.9044C1836.8168,-91.2344 2024.4461,-86.4963 2105.283,-84.455"/>
<polygon fill="#000000" stroke="#000000" points="2105.5963,-87.9483 2115.5047,-84.1969 2105.4195,-80.9505 2105.5963,-87.9483"/>
<text text-anchor="middle" x="1943.1" y="-94.3" font-family="Times,serif" font-size="14.00" fill="#000000">SP / see_version</text>
</g>
<!-- 11 -->
<g id="node27" class="node">
<title>11</title>
<ellipse fill="none" stroke="#000000" cx="1943.1" cy="-23.5" rx="23.5" ry="23.5"/>
<text text-anchor="middle" x="1943.1" y="-19.8" font-family="Times,serif" font-size="14.00" fill="#000000">11</text>
</g>
<!-- 10&#45;&gt;11 -->
<g id="edge17" class="edge">
<title>10&#45;&gt;11</title>
<path fill="none" stroke="#000000" d="M1762.3785,-75.181C1769.5848,-67.6754 1778.7584,-59.576 1788.6,-54.5 1826.9373,-34.7267 1876.66,-27.5509 1909.1995,-24.9556"/>
<polygon fill="#000000" stroke="#000000" points="1909.8005,-28.4224 1919.5347,-24.2395 1909.3166,-21.4392 1909.8005,-28.4224"/>
<text text-anchor="middle" x="1834.1" y="-58.3" font-family="Times,serif" font-size="14.00" fill="#000000">&#39;0&#39;..&#39;9&#39;</text>
</g>
<!-- 11&#45;&gt;eof_11 -->
<g id="edge31" class="edge">
<title>11&#45;&gt;eof_11</title>
<path fill="none" stroke="#000000" d="M1966.5733,-20.3318C1978.5305,-18.8657 1993.3135,-17.2789 2006.6,-16.5 2052.4816,-13.8101 2107.185,-14.6219 2131.0121,-15.1735"/>
<polygon fill="#000000" stroke="#000000" points="2131.0847,-18.6766 2141.173,-15.4399 2131.2682,-11.679 2131.0847,-18.6766"/>
<text text-anchor="middle" x="2052.1" y="-20.3" font-family="Times,serif" font-size="14.00" fill="#000000">EOF / err_eof</text>
</g>
<!-- 11&#45;&gt;13 -->
<g id="edge18" class="edge">
<title>11&#45;&gt;13</title>
<path fill="none" stroke="#000000" d="M1966.4428,-27.1022C2003.514,-33.004 2074.0617,-45.024 2097.6,-54.5 2102.4716,-56.4612 2107.3916,-58.9542 2112.1052,-61.6521"/>
<polygon fill="#000000" stroke="#000000" points="2110.4924,-64.7686 2120.8482,-67.0066 2114.1484,-58.7991 2110.4924,-64.7686"/>
<text text-anchor="middle" x="2052.1" y="-58.3" font-family="Times,serif" font-size="14.00" fill="#000000">SP / see_version</text>
</g>
</g>
</svg>
